<svg width="50" height="50" xmlns="http://www.w3.org/2000/svg"><defs><linearGradient x1="62.852%" y1="98.633%" x2="37.301%" y2="2.063%" id="a"><stop stop-color="#D1D8F4" offset="0%"/><stop stop-color="#C5CDF6" offset="8%"/><stop stop-color="#A7B1FA" offset="32%"/><stop stop-color="#919DFD" offset="56%"/><stop stop-color="#8491FE" offset="79%"/><stop stop-color="#808DFF" offset="100%"/></linearGradient></defs><g fill="none"><path d="M20.473 18.2c-.023 1.852 1.8 3.484 3.658 3.268 1.122-.131 1.593.434 1.216 1.481-.818 2.272-1.643 4.541-2.475 6.808-.559 1.516-1.795 2.085-3.324 1.529A6729.976 6729.976 0 014.81 25.914c-1.619-.593-2.17-1.782-1.58-3.409A7211.8 7211.8 0 018.607 7.714c.529-1.451 1.785-2.053 3.242-1.525 4.98 1.8 9.956 3.612 14.929 5.436 1.463.536 2.026 1.792 1.506 3.254-.122.345-.242.692-.38 1.031-.35.858-1.091 1.024-1.716.337-.721-.793-1.63-1.072-2.641-1.074a3.04 3.04 0 00-3.074 3.027zm-.783.033a3.884 3.884 0 014.849-3.73c.817.206 1.594.48 2.158 1.162.195.235.4.248.512-.083.174-.45.324-.907.451-1.372.164-.7-.174-1.376-.814-1.712a5.212 5.212 0 00-.646-.271c-4.846-1.77-9.693-3.536-14.542-5.3-1.1-.4-1.93-.013-2.342 1.1-.557 1.5-1.1 3-1.642 4.5a7699.49 7699.49 0 00-3.713 10.227c-.445 1.234-.088 1.993 1.129 2.44 2.593.952 5.193 1.887 7.789 2.833 2.314.843 4.64 1.656 6.933 2.552 1.028.4 1.995-.074 2.366-1.137.79-2.263 1.631-4.508 2.447-6.761.151-.417.082-.447-.377-.469-.588-.027-1.2-.055-1.753-.226-1.635-.502-2.826-2.142-2.805-3.751v-.002zM17.1 42.014h-2.076v-3.05h-2.556v3.041h-2.1v-7.846h2.066v2.875h2.579v-2.869H17.1v7.849zm3.6-2.568v2.564h-2.086v-7.751c1.385-.167 2.76-.339 4.122.013 1.249.322 1.893 1.213 1.863 2.441-.031 1.275-.759 2.192-2.046 2.486-.579.133-1.182.161-1.853.247zm-.006-1.684c.256 0 .436.016.613 0 .482-.049.981-.179 1.1-.692.077-.326.018-.787-.17-1.051-.307-.431-.856-.364-1.337-.3-.081.011-.2.173-.2.268-.019.561-.009 1.123-.009 1.775h.003zM5.361 39.449v2.566H3.313c-.014-.145-.037-.272-.037-.4 0-2.3.009-4.593-.011-6.889 0-.4.131-.537.5-.536 1.094 0 2.2-.1 3.28.015 1.376.14 2.178 1.067 2.23 2.331.056 1.337-.719 2.364-2.067 2.664-.578.131-1.177.163-1.847.249zm.014-1.672c.36-.028.64-.027.91-.075.443-.08.818-.33.846-.785.019-.323-.081-.83-.3-.953-.367-.207-.869-.183-1.316-.232-.037 0-.133.174-.135.269-.011.56-.005 1.12-.005 1.776zm20.414-3.62h1.67c.01.2.024.377.025.554 0 1.283-.013 2.566.008 3.848.004.415.062.828.171 1.228.182.637.631.942 1.254.944.648 0 1.118-.317 1.288-.966.104-.42.158-.85.161-1.281.02-1.249.007-2.5.007-3.748v-.572h1.784c0 .454.005.881 0 1.309-.018 1.282.01 2.567-.075 3.844-.08 1.21-.625 2.212-1.839 2.615-1.234.409-2.47.405-3.542-.494a2.483 2.483 0 01-.894-1.838c-.056-1.8-.018-3.594-.018-5.443zm7.875 2.143c.411 0 .837-.062 1.229.028.175.039.281.381.439.618.074-.062.2-.175.337-.284 1.242-1.016 3.017-.436 3.288 1.141.157.909.1 1.856.123 2.786.014.462 0 .925 0 1.421h-1.786v-2.347c0-.383.006-.768-.033-1.148-.062-.6-.391-.912-.879-.894a.958.958 0 00-.932.934c-.036.864-.02 1.731-.024 2.6v.863h-1.76l-.002-5.718zm13.295 4.391c0 .377.029.71-.015 1.033-.018.131-.186.328-.305.343-.41.066-.825.078-1.238.038-.762-.1-1.221-.522-1.322-1.285-.1-.722-.078-1.459-.1-2.189-.01-.314 0-.628 0-.976l-.74-.075v-1.235l.712-.079.054-1.045 1.706-.467V36.3h1.257v1.3h-1.191c0 .9-.018 1.744.009 2.584.011.321.251.494.58.506.164.01.334.001.593.001zm-6.425 1.322v-5.678h1.725v5.678h-1.725z" fill="#fff"/><path d="M21.889 18.3a1.853 1.853 0 111.821 1.866 1.844 1.844 0 01-1.821-1.866zm2.787 0a.937.937 0 00-.931-.916.929.929 0 10.027 1.857.933.933 0 00.904-.947v.006zm16.753 15.425a.954.954 0 01.918.934.932.932 0 11-.918-.934zm-7.379-9.853l1.08 1-.7.748-1.045-.972.665-.776zm-4.798-3.512l1.248.784-.564.861-1.2-.757.516-.888zm6.191 6.298l.745-.713.985 1.12-.788.652-.942-1.059zm2.677 1.567l.88 1.184-.829.591-.866-1.149.815-.626zM31.728 22l1.187.909-.658.8-1.117-.857.588-.852zm8.864 9.922l-.874.524-.751-1.221.867-.571.758 1.268zm-13.14-11.397l-1.279-.647.454-.914 1.32.651-.495.91z" fill="#fff"/><path d="M16.69 12.235c-.021 1.609 1.17 3.249 2.8 3.751.556.171 1.165.2 1.753.226.459.022.528.052.377.469-.816 2.253-1.657 4.5-2.447 6.761-.371 1.063-1.338 1.538-2.366 1.137-2.293-.9-4.619-1.709-6.933-2.552-2.6-.946-5.2-1.881-7.789-2.833-1.217-.447-1.574-1.206-1.129-2.44 1.23-3.414 2.47-6.824 3.721-10.23.546-1.5 1.085-3.007 1.642-4.5C6.731.912 7.566.526 8.661.925c4.849 1.764 9.696 3.53 14.542 5.3a5.2 5.2 0 01.643.275c.64.336.978 1.01.814 1.712-.127.465-.277.923-.451 1.372-.115.331-.317.318-.512.083-.564-.682-1.341-.956-2.158-1.162a3.884 3.884 0 00-4.849 3.73z" fill="url(#a)" transform="translate(3 6)"/><path d="M20.691 37.762c0-.652-.01-1.214.009-1.775 0-.095.119-.257.2-.268.481-.067 1.03-.134 1.337.3.188.264.247.725.17 1.051-.122.513-.621.643-1.1.692-.18.016-.36 0-.616 0zm-15.316.015c0-.656-.006-1.216.007-1.776 0-.095.1-.273.135-.269.447.049.949.025 1.316.232.217.123.317.63.3.953-.028.455-.4.705-.846.785-.272.048-.552.047-.912.075zm19.301-19.483a.929.929 0 11-1.858.025.929.929 0 011.858-.025z"/></g></svg>