<?xml version="1.0" encoding="utf-8"?>
<!-- Generator: Adobe Illustrator 16.0.0, SVG Export Plug-In . SVG Version: 6.00 Build 0)  -->
<!DOCTYPE svg PUBLIC "-//W3C//DTD SVG 1.1//EN" "http://www.w3.org/Graphics/SVG/1.1/DTD/svg11.dtd">
<svg version="1.1" id="Calque_1" xmlns="http://www.w3.org/2000/svg" xmlns:xlink="http://www.w3.org/1999/xlink" x="0px" y="0px"
	 width="841.891px" height="331.482px" viewBox="0 0 841.891 331.482" enable-background="new 0 0 841.891 331.482"
	 xml:space="preserve">
<g id="Calque_1_1_">
	<g>
		<path fill="#222C3D" d="M486.44,80.323h82.204l26.93,35.007H528.08v36.148h56.283v33.176H528.08v16.244h70.696l-29.028,35.008
			H486.44V80.323z"/>
		<path fill="#222C3D" d="M610.203,114.024l41.642-33.701v120.575h66.125v35.008H610.203V114.024z"/>
	</g>
	<g>
		<path fill="#45ABD1" stroke="#45ABD1" stroke-miterlimit="10" d="M507.522,257.529c0.48,0,0.849,0.373,0.849,0.86
			c0,0.464-0.367,0.867-0.849,0.867h-14.328c-1.555,0-2.798,1.239-2.798,2.823v3.282c0,1.556,1.243,2.82,2.798,2.82h10.737
			c2.431,0,4.438,2.046,4.438,4.551v3.28c0,2.504-2.009,4.551-4.438,4.551h-14.355c-0.479,0-0.848-0.373-0.848-0.86
			c0-0.464,0.369-0.836,0.848-0.836h14.355c1.528,0,2.771-1.271,2.771-2.854v-3.28c0-1.554-1.242-2.822-2.771-2.822h-10.737
			c-2.459,0-4.466-2.042-4.466-4.549v-3.282c0-2.506,2.007-4.552,4.466-4.552L507.522,257.529L507.522,257.529z"/>
		<path fill="#45ABD1" stroke="#45ABD1" stroke-miterlimit="10" d="M538.466,257.529c0.453,0,0.848,0.373,0.848,0.86
			c0,0.464-0.395,0.867-0.848,0.867h-13.82c-1.524,0-2.769,1.267-2.769,2.823v5.874h15.062c0.479,0,0.849,0.402,0.849,0.86
			c0,0.492-0.368,0.867-0.849,0.867h-15.062v10.021c0,0.487-0.396,0.86-0.848,0.86c-0.481,0-0.851-0.373-0.851-0.86V262.08
			c0-2.505,2.007-4.552,4.466-4.552H538.466z"/>
		<path fill="#45ABD1" stroke="#45ABD1" stroke-miterlimit="10" d="M572.568,280.595c-2.458,0-4.468-2.017-4.468-4.521v-17.687
			c0-0.458,0.37-0.86,0.848-0.86c0.453,0,0.853,0.402,0.853,0.86v17.687c0,1.559,1.241,2.822,2.769,2.822h7.744
			c1.526,0,2.768-1.265,2.768-2.822v-17.687c0-0.458,0.369-0.86,0.85-0.86c0.448,0,0.848,0.402,0.848,0.86v17.687
			c0,1.559,1.243,2.822,2.771,2.822h7.744c1.524,0,2.769-1.265,2.769-2.822v-17.687c0-0.458,0.367-0.86,0.848-0.86
			c0.453,0,0.85,0.402,0.85,0.86v17.687c0,2.504-2.008,4.521-4.465,4.521h-7.744c-1.497,0-2.828-0.746-3.617-1.873
			c-0.821,1.127-2.146,1.873-3.616,1.873H572.568z"/>
		<path fill="#45ABD1" stroke="#45ABD1" stroke-miterlimit="10" d="M611.449,258.389c0-0.487,0.367-0.86,0.85-0.86
			c0.449,0,0.848,0.373,0.848,0.86v21.314c0,0.487-0.397,0.86-0.848,0.86c-0.481,0-0.85-0.373-0.85-0.86V258.389z"/>
		<path fill="#45ABD1" stroke="#45ABD1" stroke-miterlimit="10" d="M646.489,262.08c0-1.584-1.243-2.852-2.77-2.852H631.23
			c-1.557,0-2.8,1.268-2.8,2.852v17.624c0,0.487-0.367,0.86-0.816,0.86c-0.48,0-0.852-0.373-0.852-0.86V262.08
			c0-2.505,2.01-4.552,4.468-4.552h12.489c2.461,0,4.466,2.047,4.466,4.552v17.624c0,0.487-0.367,0.86-0.849,0.86
			c-0.453,0-0.849-0.373-0.849-0.86L646.489,262.08L646.489,262.08z"/>
		<path fill="#45ABD1" stroke="#45ABD1" stroke-miterlimit="10" d="M680.595,262.08c0-1.584-1.242-2.852-2.768-2.852h-12.491
			c-1.558,0-2.801,1.268-2.801,2.852v17.624c0,0.487-0.367,0.86-0.819,0.86c-0.479,0-0.849-0.373-0.849-0.86V262.08
			c0-2.505,2.006-4.552,4.469-4.552h12.491c2.455,0,4.463,2.047,4.463,4.552v17.624c0,0.487-0.366,0.86-0.848,0.86
			c-0.45,0-0.849-0.373-0.849-0.86L680.595,262.08L680.595,262.08z"/>
		<path fill="#45ABD1" stroke="#45ABD1" stroke-miterlimit="10" d="M713.316,278.837c0.453,0,0.848,0.403,0.848,0.866
			c0,0.487-0.395,0.86-0.848,0.86h-13.649c-2.457,0-4.466-2.047-4.466-4.551V262.08c0-2.505,2.009-4.552,4.466-4.552h13.649
			c0.453,0,0.82,0.373,0.82,0.86c0,0.464-0.367,0.867-0.82,0.867h-13.649c-1.526,0-2.77,1.267-2.77,2.823v5.874h16.054
			c0.479,0,0.846,0.402,0.846,0.86c0,0.464-0.367,0.867-0.846,0.867h-16.054v6.332c0,1.558,1.242,2.823,2.77,2.823L713.316,278.837
			L713.316,278.837z"/>
		<path fill="#45ABD1" stroke="#45ABD1" stroke-miterlimit="10" d="M747.509,262.08v4.979c0,2.507-2.005,4.554-4.467,4.554
			c-0.338,0-0.679,0-0.988,0c0.51,1.289,2.062,5.207,3.08,7.771c0.172,0.434-0.058,0.953-0.479,1.127
			c-0.424,0.169-0.905-0.031-1.103-0.493l-3.308-8.404c-9.807,0-11.843,0-11.843,0s0,4.749,0,8.091c0,0.487-0.395,0.86-0.848,0.86
			c-0.479,0-0.85-0.373-0.85-0.86V262.08c0-2.505,2.007-4.552,4.469-4.552h11.866C745.504,257.529,747.509,259.575,747.509,262.08z
			 M745.843,262.08c0-1.558-1.243-2.823-2.801-2.823h-11.866c-1.527,0-2.771,1.267-2.771,2.823v7.801h14.64
			c1.557,0,2.8-1.264,2.8-2.82L745.843,262.08L745.843,262.08z"/>
		<path fill="#45ABD1" stroke="#45ABD1" stroke-miterlimit="10" d="M778.93,257.529c0.48,0,0.849,0.373,0.849,0.86
			c0,0.464-0.367,0.867-0.849,0.867h-14.328c-1.553,0-2.799,1.239-2.799,2.823v3.282c0,1.556,1.246,2.82,2.799,2.82h10.738
			c2.43,0,4.438,2.046,4.438,4.551v3.28c0,2.504-2.009,4.551-4.438,4.551h-14.354c-0.48,0-0.849-0.373-0.849-0.86
			c0-0.464,0.367-0.836,0.849-0.836h14.354c1.526,0,2.771-1.271,2.771-2.854v-3.28c0-1.554-1.244-2.822-2.771-2.822h-10.738
			c-2.458,0-4.465-2.042-4.465-4.549v-3.282c0-2.506,2.007-4.552,4.465-4.552L778.93,257.529L778.93,257.529z"/>
	</g>
	<g>
		<path fill="#222C3D" d="M240.221,72.391v128.263c0,1.243-102.315-33.974-102.315-33.974v60.315l154.029,52.681V31.164
			L240.221,72.391z"/>
		<path fill="#45ABD1" d="M95.842,238.445V110.183c0-1.244,102.567,33.973,102.567,33.973V83.843L44,31.164v248.512L95.842,238.445z
			"/>
	</g>
	<path fill="#222C3D" d="M387.978,78.493c-44.845,0-83.512,32.717-83.512,79.62s38.667,79.851,83.512,79.851
		c44.844,0,83.51-32.947,83.51-79.851S432.822,78.493,387.978,78.493z M430.282,183.408c-1.996,0-3.941-0.212-5.821-0.605
		c-1.987,3.448-4.826,6.341-8.224,8.405c-6.837,6.587-16.294,10.553-28.046,10.601c-3.958,3.011-8.896,4.8-14.252,4.8
		c-10.101,0-18.711-6.35-22.072-15.272c-1.517,0.315-3.086,0.485-4.698,0.485c-12.602,0-22.815-10.216-22.815-22.816
		c0-8.271,4.399-15.514,10.986-19.516c-1.163-2.957-1.809-6.178-1.809-9.549c0-14.433,11.699-26.132,26.132-26.132
		c4.688,0,9.085,1.242,12.891,3.405c4.583-1.666,9.736-2.57,15.425-2.57c14.063,0,24.86,5.527,31.831,14.453
		c3.239-1.301,6.769-2.03,10.473-2.03c15.561,0,28.172,12.612,28.172,28.17C458.454,170.796,445.843,183.408,430.282,183.408z"/>
</g>
<g id="Layer_1">
	<path fill="#222C3D" d="M767.248,81.498c0.003,0.11,0.017,0.218,0.017,0.329c0,7.201-5.838,13.039-13.039,13.039
		s-13.039-5.838-13.039-13.039c0-0.218,0.022-0.431,0.032-0.647l-7.962-0.097l0.289,155.377h41.642V81.595L767.248,81.498z"/>
	<path fill="#45ABD1" d="M726.934,59.006l5.479,5.329c13.74-12.533,34.92-12.127,47.317,0.454l5.32-5.001
		C769.956,44.254,743.88,43.595,726.934,59.006z M736.859,68.875l5.375,5.229c3.322-3.104,8.683-4.853,14.077-4.78
		c5.352,0.036,10.513,1.869,13.555,4.943l5.379-5.056C765.566,59.839,747.527,59.458,736.859,68.875z M751.097,77.485
		c-2.188,2.038-2.271,5.341-0.185,7.362c2.076,2.016,5.51,1.99,7.669-0.041c2.159-2.028,2.257-5.303,0.205-7.325
		C756.728,75.45,753.28,75.451,751.097,77.485z"/>
	<g>
		<path fill="#45ABD1" d="M788.557,54.84c-8.572-8.932-20.854-14.05-33.739-14.05c-11.965,0-23.509,4.318-32.532,12.166
			l-7.181-7.254c10.943-9.495,24.938-14.722,39.439-14.722c15.809,0,30.818,6.312,41.229,17.328L788.557,54.84z"/>
		<path fill="#FFFFFF" d="M754.545,31.231c15.65,0,30.517,6.213,40.87,17.064l-6.847,6.195
			c-8.611-8.872-20.883-13.951-33.751-13.951c-11.947,0-23.477,4.283-32.52,12.072l-6.827-6.896
			C726.339,36.371,740.192,31.231,754.545,31.231 M754.545,30.731c-14.049,0-28.323,4.906-39.806,14.957l7.533,7.61
			c9.37-8.228,21.048-12.258,32.545-12.258c12.529,0,24.843,4.787,33.728,14.147l7.585-6.865
			C785.255,36.702,770.037,30.731,754.545,30.731L754.545,30.731z"/>
	</g>
</g>
</svg>
